<!--?xml version="1.0" standalone="no"?-->
              <svg id="sw-js-blob-svg" viewBox="0 0 100 100" xmlns="http://www.w3.org/2000/svg" version="1.1">
                    <defs> 
                        <linearGradient id="sw-gradient" x1="0" x2="1" y1="1" y2="0">
                            <stop id="stop1" stop-color="rgba(248, 117, 55, 1)" offset="0%"></stop>
                            <stop id="stop2" stop-color="rgba(251, 168, 31, 1)" offset="100%"></stop>
                        </linearGradient>
                    </defs>
                <path fill="url(#sw-gradient)" d="M23.3,-35.5C30.4,-31.7,36.6,-25.6,39.1,-18.4C41.6,-11.1,40.4,-2.7,39.2,5.6C38,14,36.7,22.3,32.1,28.2C27.6,34.1,19.8,37.6,11.8,39.8C3.7,42.1,-4.6,43.2,-11.6,40.6C-18.5,38,-23.9,31.7,-29,25.4C-34.1,19.1,-38.7,12.6,-38.9,6.1C-39.1,-0.5,-34.8,-7.2,-31.8,-14.8C-28.8,-22.5,-27.1,-31,-22,-35.7C-17,-40.4,-8.5,-41.2,-0.2,-40.9C8.1,-40.6,16.2,-39.2,23.3,-35.5Z" width="100%" height="100%" transform="translate(50 50)" stroke-width="0" style="transition: all 0.3s ease 0s;"></path>
              </svg>