<?xml version="1.0" encoding="UTF-8"?>
<!DOCTYPE svg PUBLIC "-//W3C//DTD SVG 1.1//EN" "http://www.w3.org/Graphics/SVG/1.1/DTD/svg11.dtd">
<svg xmlns="http://www.w3.org/2000/svg" version="1.1" width="500px" height="500px" style="shape-rendering:geometricPrecision; text-rendering:geometricPrecision; image-rendering:optimizeQuality; fill-rule:evenodd; clip-rule:evenodd" xmlns:xlink="http://www.w3.org/1999/xlink">
<g><path style="opacity:0.251" fill="#c9c9e3" d="M 84.5,223.5 C 69.8333,223.5 55.1667,223.5 40.5,223.5C 40.5,224.833 40.5,226.167 40.5,227.5C 39.5489,226.081 39.2155,224.415 39.5,222.5C 54.676,222.171 69.676,222.504 84.5,223.5 Z"/></g>
<g><path style="opacity:0.995" fill="#42419b" d="M 84.5,223.5 C 93.6859,229.172 103.019,234.672 112.5,240C 119.956,241.875 127.289,244.042 134.5,246.5C 134.5,248.167 134.5,249.833 134.5,251.5C 135.833,251.5 137.167,251.5 138.5,251.5C 138.5,255.167 138.5,258.833 138.5,262.5C 137.167,262.5 135.833,262.5 134.5,262.5C 134.5,263.833 134.5,265.167 134.5,266.5C 130.173,266.984 126.173,266.318 122.5,264.5C 117.854,254.741 111.187,253.075 102.5,259.5C 100.713,261.858 99.7134,264.525 99.5,267.5C 88.8333,267.5 78.1667,267.5 67.5,267.5C 67.3713,265.784 67.038,264.117 66.5,262.5C 66.7148,260.821 66.0481,259.821 64.5,259.5C 64.5,257.5 63.5,256.5 61.5,256.5C 53.3668,254.068 47.7002,256.734 44.5,264.5C 39.4682,266.37 34.1348,267.037 28.5,266.5C 28.5,265.5 28.5,264.5 28.5,263.5C 32.5,263.5 36.5,263.5 40.5,263.5C 40.5,262.167 40.5,260.833 40.5,259.5C 41.791,259.737 42.791,259.404 43.5,258.5C 44.4345,257.432 44.7678,256.099 44.5,254.5C 37.8333,254.5 31.1667,254.5 24.5,254.5C 24.5,253.5 24.5,252.5 24.5,251.5C 29.8333,251.5 35.1667,251.5 40.5,251.5C 40.5,250.167 40.5,248.833 40.5,247.5C 43.1667,247.5 45.8333,247.5 48.5,247.5C 48.5,245.833 48.5,244.167 48.5,242.5C 41.8333,242.5 35.1667,242.5 28.5,242.5C 28.5,241.5 28.5,240.5 28.5,239.5C 41.6774,239.829 54.6774,239.495 67.5,238.5C 67.5,237.5 67.5,236.5 67.5,235.5C 52.0089,234.504 36.3422,234.17 20.5,234.5C 20.5,233.5 20.5,232.5 20.5,231.5C 35.0097,231.829 49.3431,231.496 63.5,230.5C 63.5,229.5 63.5,228.5 63.5,227.5C 55.8333,227.5 48.1667,227.5 40.5,227.5C 40.5,226.167 40.5,224.833 40.5,223.5C 55.1667,223.5 69.8333,223.5 84.5,223.5 Z"/></g>
<g><path style="opacity:0.709" fill="#4e4e4e" d="M 231.5,227.5 C 231.5,227.833 231.5,228.167 231.5,228.5C 229.833,228.5 228.167,228.5 226.5,228.5C 226.5,240.5 226.5,252.5 226.5,264.5C 226.167,264.5 225.833,264.5 225.5,264.5C 225.5,252.167 225.5,239.833 225.5,227.5C 227.5,227.5 229.5,227.5 231.5,227.5 Z"/></g>
<g><path style="opacity:1" fill="#000000" d="M 231.5,228.5 C 231.5,240.5 231.5,252.5 231.5,264.5C 229.833,264.5 228.167,264.5 226.5,264.5C 226.5,252.5 226.5,240.5 226.5,228.5C 228.167,228.5 229.833,228.5 231.5,228.5 Z"/></g>
<g><path style="opacity:0.468" fill="#888888" d="M 231.5,227.5 C 232.495,239.989 232.829,252.656 232.5,265.5C 229.941,265.802 227.607,265.468 225.5,264.5C 225.833,264.5 226.167,264.5 226.5,264.5C 228.167,264.5 229.833,264.5 231.5,264.5C 231.5,252.5 231.5,240.5 231.5,228.5C 231.5,228.167 231.5,227.833 231.5,227.5 Z"/></g>
<g><path style="opacity:1" fill="#2d2d2d" d="M 240.5,227.5 C 246.643,228.026 247.976,230.86 244.5,236C 239.504,236.664 237.67,234.498 239,229.5C 239.717,228.956 240.217,228.289 240.5,227.5 Z"/></g>
<g><path style="opacity:0.706" fill="#6b6b6b" d="M 331.5,229.5 C 328.612,228.99 326.279,229.656 324.5,231.5C 323.733,230.828 323.066,229.995 322.5,229C 325.696,228.195 328.696,228.362 331.5,229.5 Z"/></g>
<g><path style="opacity:1" fill="#1d1d1d" d="M 161.5,228.5 C 169.253,228.104 176.92,228.604 184.5,230C 193.38,236 196.213,244.167 193,254.5C 190.668,260.164 186.501,263.664 180.5,265C 174.175,265.5 167.842,265.666 161.5,265.5C 161.5,253.167 161.5,240.833 161.5,228.5 Z M 168.5,234.5 C 183.17,232.999 188.67,239.332 185,253.5C 183.52,256.663 181.02,258.496 177.5,259C 174.518,259.498 171.518,259.665 168.5,259.5C 168.5,251.167 168.5,242.833 168.5,234.5 Z"/></g>
<g><path style="opacity:1" fill="#212121" d="M 354.5,262.5 C 352.721,264.344 350.388,265.01 347.5,264.5C 344.691,260.232 341.857,255.898 339,251.5C 336.143,255.898 333.309,260.232 330.5,264.5C 327.941,264.802 325.607,264.468 323.5,263.5C 326.558,257.724 329.891,252.057 333.5,246.5C 330.74,241.307 327.74,236.307 324.5,231.5C 326.279,229.656 328.612,228.99 331.5,229.5C 334.225,233.268 336.725,237.268 339,241.5C 342.204,237.593 345.038,233.426 347.5,229C 350.227,228.182 352.894,228.348 355.5,229.5C 352.205,235.258 348.539,240.758 344.5,246C 348.086,251.403 351.419,256.903 354.5,262.5 Z"/></g>
<g><path style="opacity:0.358" fill="#aaaad2" d="M 63.5,230.5 C 49.3431,231.496 35.0097,231.829 20.5,231.5C 20.5,232.5 20.5,233.5 20.5,234.5C 36.3422,234.17 52.0089,234.504 67.5,235.5C 51.5,235.5 35.5,235.5 19.5,235.5C 19.5,233.833 19.5,232.167 19.5,230.5C 34.1667,230.5 48.8333,230.5 63.5,230.5 Z"/></g>
<g><path style="opacity:1" fill="#252525" d="M 216.5,240.5 C 216.427,242.027 217.094,243.027 218.5,243.5C 219.222,243.918 219.722,244.584 220,245.5C 220.497,248.146 220.664,250.813 220.5,253.5C 214.794,253.171 209.128,253.505 203.5,254.5C 204.603,257.936 206.936,259.936 210.5,260.5C 213.174,259.31 215.84,258.476 218.5,258C 221.104,261.49 220.104,263.824 215.5,265C 201.882,267.049 195.716,261.216 197,247.5C 201.125,238.735 207.625,236.402 216.5,240.5 Z M 214.5,248.5 C 210.671,249.069 207.337,248.402 204.5,246.5C 208.708,242.256 212.042,242.922 214.5,248.5 Z"/></g>
<g><path style="opacity:0.126" fill="#cdcdcd" d="M 245.5,239.5 C 243.5,239.5 241.5,239.5 239.5,239.5C 239.5,247.833 239.5,256.167 239.5,264.5C 241.5,264.5 243.5,264.5 245.5,264.5C 243.393,265.468 241.059,265.802 238.5,265.5C 238.5,256.5 238.5,247.5 238.5,238.5C 241.059,238.198 243.393,238.532 245.5,239.5 Z"/></g>
<g><path style="opacity:1" fill="#1f1f1f" d="M 245.5,239.5 C 246.833,247.833 246.833,256.167 245.5,264.5C 243.5,264.5 241.5,264.5 239.5,264.5C 239.5,256.167 239.5,247.833 239.5,239.5C 241.5,239.5 243.5,239.5 245.5,239.5 Z"/></g>
<g><path style="opacity:1" fill="#2b2b2b" d="M 261.5,254.5 C 262.032,257.46 262.699,257.793 263.5,255.5C 264.631,249.94 266.464,244.607 269,239.5C 271.041,238.577 273.208,238.244 275.5,238.5C 273.061,247.647 269.728,256.48 265.5,265C 263.231,265.758 261.064,265.591 259,264.5C 255.527,255.913 252.361,247.246 249.5,238.5C 252.365,238.055 254.865,238.722 257,240.5C 259.007,245.02 260.507,249.687 261.5,254.5 Z"/></g>
<g><path style="opacity:1" fill="#212121" d="M 299.5,246.5 C 299.5,248.5 299.5,250.5 299.5,252.5C 293.833,252.5 288.167,252.5 282.5,252.5C 282.263,253.791 282.596,254.791 283.5,255.5C 283.5,255.833 283.5,256.167 283.5,256.5C 283.5,258.5 284.5,259.5 286.5,259.5C 289.948,260.374 293.281,259.708 296.5,257.5C 301.494,260.819 300.828,263.319 294.5,265C 283.362,267.452 277.362,263.119 276.5,252C 277.067,241.201 282.734,236.867 293.5,239C 296.857,240.512 298.857,243.012 299.5,246.5 Z M 293.5,246.5 C 290.663,248.402 287.329,249.069 283.5,248.5C 286.015,242.985 289.348,242.318 293.5,246.5 Z"/></g>
<g><path style="opacity:0.417" fill="#9c9c9c" d="M 310.5,239.5 C 308.833,239.5 307.167,239.5 305.5,239.5C 305.5,247.833 305.5,256.167 305.5,264.5C 307.5,264.5 309.5,264.5 311.5,264.5C 309.393,265.468 307.059,265.802 304.5,265.5C 304.5,256.5 304.5,247.5 304.5,238.5C 306.735,238.205 308.735,238.539 310.5,239.5 Z"/></g>
<g><path style="opacity:1" fill="#181818" d="M 311.5,264.5 C 309.5,264.5 307.5,264.5 305.5,264.5C 305.5,256.167 305.5,247.833 305.5,239.5C 307.167,239.5 308.833,239.5 310.5,239.5C 310.5,239.833 310.5,240.167 310.5,240.5C 310.345,243.853 311.012,244.186 312.5,241.5C 314.845,238.925 317.845,237.925 321.5,238.5C 322.805,244.362 320.472,246.862 314.5,246C 313.667,246.833 312.833,247.667 312,248.5C 311.501,253.823 311.334,259.156 311.5,264.5 Z"/></g>
<g><path style="opacity:1" fill="#292929" d="M 364.5,239.5 C 364.281,240.675 364.614,241.675 365.5,242.5C 366.107,242.376 366.44,242.043 366.5,241.5C 367.058,240.21 368.058,239.377 369.5,239C 378.951,237.611 383.617,241.777 383.5,251.5C 383.33,262.699 377.996,267.032 367.5,264.5C 367.44,263.957 367.107,263.624 366.5,263.5C 365.513,266.768 365.18,270.102 365.5,273.5C 363.167,273.5 360.833,273.5 358.5,273.5C 358.333,262.162 358.5,250.828 359,239.5C 360.943,238.193 362.777,238.193 364.5,239.5 Z M 369.5,260.5 C 368.71,259.599 367.71,258.932 366.5,258.5C 366.334,254.486 366.501,250.486 367,246.5C 371.406,243.248 374.406,244.248 376,249.5C 377.247,255.307 375.081,258.974 369.5,260.5 Z"/></g>
<g><path style="opacity:1" fill="#1e1e1e" d="M 394.5,248.5 C 393.512,253.64 393.179,258.974 393.5,264.5C 391.5,264.5 389.5,264.5 387.5,264.5C 387.5,255.833 387.5,247.167 387.5,238.5C 391.162,237.637 393.328,238.97 394,242.5C 396.516,238.64 399.849,237.64 404,239.5C 404.651,241.235 404.485,242.902 403.5,244.5C 401.577,245.308 399.577,245.808 397.5,246C 396.309,246.698 395.309,247.531 394.5,248.5 Z"/></g>
<g><path style="opacity:1" fill="#1f1f1f" d="M 429.5,252.5 C 423.833,252.5 418.167,252.5 412.5,252.5C 412.232,254.099 412.566,255.432 413.5,256.5C 414.167,257.167 414.833,257.833 415.5,258.5C 415.821,260.048 416.821,260.715 418.5,260.5C 421.298,259.9 423.965,258.9 426.5,257.5C 431.541,260.782 430.875,263.282 424.5,265C 409.406,266.627 403.739,260.127 407.5,245.5C 408.906,245.027 409.573,244.027 409.5,242.5C 414.152,238.248 419.486,237.414 425.5,240C 429.412,243.558 430.745,247.725 429.5,252.5 Z M 422.5,245.5 C 422.804,246.15 423.137,246.817 423.5,247.5C 420.02,248.806 416.687,248.806 413.5,247.5C 415.935,243.453 418.935,242.786 422.5,245.5 Z"/></g>
<g><path style="opacity:1" fill="#2b2b2b" d="M 438.5,238.5 C 441.518,238.335 444.518,238.502 447.5,239C 452.077,240.407 452.577,242.574 449,245.5C 445.573,242.987 442.406,243.154 439.5,246C 442.5,248.229 445.833,249.896 449.5,251C 454.013,256.766 453.013,261.433 446.5,265C 443.167,265.667 439.833,265.667 436.5,265C 431.362,263.114 431.195,260.948 436,258.5C 438.651,260.164 441.484,260.664 444.5,260C 445.022,259.439 445.355,258.772 445.5,258C 442.59,255.519 439.257,253.686 435.5,252.5C 431.493,246.836 432.493,242.17 438.5,238.5 Z"/></g>
<g><path style="opacity:1" fill="#2a2a2a" d="M 471.5,251.5 C 471.427,253.027 472.094,254.027 473.5,254.5C 474.834,259.299 473.167,262.799 468.5,265C 465.167,265.667 461.833,265.667 458.5,265C 453.59,263.348 453.257,261.181 457.5,258.5C 459.5,259.167 461.5,259.833 463.5,260.5C 465.33,260.42 466.663,259.587 467.5,258C 463.937,255.468 460.104,253.301 456,251.5C 453.4,243.419 456.4,239.085 465,238.5C 468.698,238.1 471.531,239.433 473.5,242.5C 473.135,243.902 472.301,244.902 471,245.5C 467.344,242.692 464.178,243.025 461.5,246.5C 464.653,248.55 467.986,250.216 471.5,251.5 Z"/></g>
<g><path style="opacity:0.753" fill="#8b8b8b" d="M 216.5,240.5 C 217.906,240.973 218.573,241.973 218.5,243.5C 217.094,243.027 216.427,242.027 216.5,240.5 Z"/></g>
<g><path style="opacity:0.157" fill="#cccccc" d="M 310.5,240.5 C 311.167,240.833 311.833,241.167 312.5,241.5C 311.012,244.186 310.345,243.853 310.5,240.5 Z"/></g>
<g><path style="opacity:0.408" fill="#8f8f8f" d="M 364.5,239.5 C 365.167,240.167 365.833,240.833 366.5,241.5C 366.44,242.043 366.107,242.376 365.5,242.5C 364.614,241.675 364.281,240.675 364.5,239.5 Z"/></g>
<g><path style="opacity:0.459" fill="#909090" d="M 409.5,242.5 C 409.573,244.027 408.906,245.027 407.5,245.5C 407.427,243.973 408.094,242.973 409.5,242.5 Z"/></g>
<g><path style="opacity:0.511" fill="#9f9fcc" d="M 67.5,238.5 C 54.6774,239.495 41.6774,239.829 28.5,239.5C 28.5,240.5 28.5,241.5 28.5,242.5C 35.1667,242.5 41.8333,242.5 48.5,242.5C 48.5,244.167 48.5,245.833 48.5,247.5C 45.8333,247.5 43.1667,247.5 40.5,247.5C 40.5,248.833 40.5,250.167 40.5,251.5C 35.1667,251.5 29.8333,251.5 24.5,251.5C 24.5,252.5 24.5,253.5 24.5,254.5C 31.1667,254.5 37.8333,254.5 44.5,254.5C 44.7678,256.099 44.4345,257.432 43.5,258.5C 43.5,257.5 43.5,256.5 43.5,255.5C 36.8333,255.5 30.1667,255.5 23.5,255.5C 23.5,253.833 23.5,252.167 23.5,250.5C 28.8333,250.5 34.1667,250.5 39.5,250.5C 39.5,249.167 39.5,247.833 39.5,246.5C 42.1667,246.5 44.8333,246.5 47.5,246.5C 47.5,245.5 47.5,244.5 47.5,243.5C 40.8333,243.5 34.1667,243.5 27.5,243.5C 27.5,241.833 27.5,240.167 27.5,238.5C 40.8333,238.5 54.1667,238.5 67.5,238.5 Z"/></g>
<g><path style="opacity:0.326" fill="#b0b0b0" d="M 204.5,246.5 C 207.337,248.402 210.671,249.069 214.5,248.5C 211.038,249.482 207.371,249.815 203.5,249.5C 203.263,248.209 203.596,247.209 204.5,246.5 Z"/></g>
<g><path style="opacity:0.328" fill="#afafaf" d="M 293.5,246.5 C 294.404,247.209 294.737,248.209 294.5,249.5C 290.629,249.815 286.962,249.482 283.5,248.5C 287.329,249.069 290.663,248.402 293.5,246.5 Z"/></g>
<g><path style="opacity:0.325" fill="#9c9c9c" d="M 422.5,245.5 C 424.176,246.183 424.843,247.517 424.5,249.5C 420.445,249.824 416.445,249.491 412.5,248.5C 412.624,247.893 412.957,247.56 413.5,247.5C 416.687,248.806 420.02,248.806 423.5,247.5C 423.137,246.817 422.804,246.15 422.5,245.5 Z"/></g>
<g><path style="opacity:0.392" fill="#979797" d="M 394.5,248.5 C 394.5,254.167 394.5,259.833 394.5,265.5C 391.941,265.802 389.607,265.468 387.5,264.5C 389.5,264.5 391.5,264.5 393.5,264.5C 393.179,258.974 393.512,253.64 394.5,248.5 Z"/></g>
<g><path style="opacity:0.283" fill="#bebedd" d="M 134.5,246.5 C 135.434,247.568 135.768,248.901 135.5,250.5C 136.833,250.5 138.167,250.5 139.5,250.5C 139.5,254.833 139.5,259.167 139.5,263.5C 138.167,263.5 136.833,263.5 135.5,263.5C 135.5,264.833 135.5,266.167 135.5,267.5C 131.167,267.5 126.833,267.5 122.5,267.5C 122.5,266.5 122.5,265.5 122.5,264.5C 122.5,265.5 122.5,266.5 122.5,267.5C 126.833,267.5 131.167,267.5 135.5,267.5C 135.5,266.167 135.5,264.833 135.5,263.5C 136.833,263.5 138.167,263.5 139.5,263.5C 139.5,259.167 139.5,254.833 139.5,250.5C 138.167,250.5 136.833,250.5 135.5,250.5C 135.768,248.901 135.434,247.568 134.5,246.5 Z"/></g>
<g><path style="opacity:0.4" fill="#989898" d="M 299.5,246.5 C 300.468,248.607 300.802,250.941 300.5,253.5C 294.402,252.883 288.735,253.55 283.5,255.5C 282.596,254.791 282.263,253.791 282.5,252.5C 288.167,252.5 293.833,252.5 299.5,252.5C 299.5,250.5 299.5,248.5 299.5,246.5 Z"/></g>
<g><path style="opacity:0.394" fill="#999999" d="M 429.5,252.5 C 424.36,253.488 419.026,253.821 413.5,253.5C 413.5,254.5 413.5,255.5 413.5,256.5C 412.566,255.432 412.232,254.099 412.5,252.5C 418.167,252.5 423.833,252.5 429.5,252.5 Z"/></g>
<g><path style="opacity:0.459" fill="#989898" d="M 471.5,251.5 C 472.906,251.973 473.573,252.973 473.5,254.5C 472.094,254.027 471.427,253.027 471.5,251.5 Z"/></g>
<g><path style="opacity:0.455" fill="#a5a5a5" d="M 261.5,254.5 C 262.167,254.833 262.833,255.167 263.5,255.5C 262.699,257.793 262.032,257.46 261.5,254.5 Z"/></g>
<g><path style="opacity:0.776" fill="#aeabd4" d="M 61.5,256.5 C 63.5,256.5 64.5,257.5 64.5,259.5C 63.1667,258.833 62.1667,257.833 61.5,256.5 Z"/></g>
<g><path style="opacity:0.82" fill="#898989" d="M 283.5,256.5 C 284.833,257.167 285.833,258.167 286.5,259.5C 284.5,259.5 283.5,258.5 283.5,256.5 Z"/></g>
<g><path style="opacity:0.994" fill="#5652a4" d="M 52.5,258.5 C 62.1463,257.973 65.6463,262.307 63,271.5C 58.3333,276.833 53.6667,276.833 49,271.5C 46.3476,266.039 47.5142,261.706 52.5,258.5 Z"/></g>
<g><path style="opacity:0.898" fill="#a8a3d0" d="M 64.5,259.5 C 66.0481,259.821 66.7148,260.821 66.5,262.5C 65.5987,261.71 64.9321,260.71 64.5,259.5 Z"/></g>
<g><path style="opacity:0.994" fill="#5752a5" d="M 107.5,258.5 C 116.161,257.329 119.994,260.996 119,269.5C 114.775,276.358 109.775,277.025 104,271.5C 101.676,266.167 102.843,261.833 107.5,258.5 Z"/></g>
<g><path style="opacity:0.875" fill="#888888" d="M 366.5,258.5 C 367.71,258.932 368.71,259.599 369.5,260.5C 367.821,260.715 366.821,260.048 366.5,258.5 Z"/></g>
<g><path style="opacity:0.839" fill="#8b8b8b" d="M 415.5,258.5 C 416.71,258.932 417.71,259.599 418.5,260.5C 416.821,260.715 415.821,260.048 415.5,258.5 Z"/></g>
<g><path style="opacity:0.688" fill="#7978b8" d="M 43.5,258.5 C 42.791,259.404 41.791,259.737 40.5,259.5C 40.5,260.833 40.5,262.167 40.5,263.5C 36.5,263.5 32.5,263.5 28.5,263.5C 28.5,263.167 28.5,262.833 28.5,262.5C 32.1667,262.5 35.8333,262.5 39.5,262.5C 39.5,261.167 39.5,259.833 39.5,258.5C 40.8333,258.5 42.1667,258.5 43.5,258.5 Z"/></g>
<g><path style="opacity:0.11" fill="#d9d9d9" d="M 367.5,264.5 C 366.833,267.5 366.167,270.5 365.5,273.5C 365.18,270.102 365.513,266.768 366.5,263.5C 367.107,263.624 367.44,263.957 367.5,264.5 Z"/></g>
<g><path style="opacity:0.462" fill="#979797" d="M 323.5,263.5 C 325.607,264.468 327.941,264.802 330.5,264.5C 327.976,265.8 325.309,265.8 322.5,264.5C 322.624,263.893 322.957,263.56 323.5,263.5 Z"/></g>
<g><path style="opacity:0.462" fill="#919191" d="M 354.5,262.5 C 355.267,263.172 355.934,264.005 356.5,265C 353.304,265.805 350.304,265.638 347.5,264.5C 350.388,265.01 352.721,264.344 354.5,262.5 Z"/></g>
<g><path style="opacity:0.17" fill="#d1d0e7" d="M 28.5,262.5 C 28.5,262.833 28.5,263.167 28.5,263.5C 28.5,264.5 28.5,265.5 28.5,266.5C 34.1348,267.037 39.4682,266.37 44.5,264.5C 44.5,265.5 44.5,266.5 44.5,267.5C 38.8333,267.5 33.1667,267.5 27.5,267.5C 27.2155,265.585 27.5489,263.919 28.5,262.5 Z"/></g>
</svg>
